<?xml version="1.0" encoding="utf-8"?>
<!-- Generator: Adobe Illustrator 23.1.1, SVG Export Plug-In . SVG Version: 6.00 Build 0)  -->
<svg version="1.1" id="Layer_1" xmlns="http://www.w3.org/2000/svg" xmlns:xlink="http://www.w3.org/1999/xlink" x="0px" y="0px"
	 viewBox="0 0 560 183" style="enable-background:new 0 0 560 183;" xml:space="preserve">
<style type="text/css">
	.st0{fill-rule:evenodd;clip-rule:evenodd;fill:#FF9900;}
	.st1{fill-rule:evenodd;clip-rule:evenodd;fill:#221F1F;}
</style>
<path class="st0" d="M342.6,140.2c-30.2,22.3-74,34.2-111.7,34.2c-52.9,0-100.5-19.6-136.5-52.1c-2.8-2.6-0.3-6,3.1-4.1
	c38.9,22.6,86.9,36.2,136.6,36.2c33.5,0,70.3-6.9,104.2-21.3C343.3,131,347.6,136.5,342.6,140.2 M355.2,125.8
	c-3.8-4.9-25.5-2.3-35.3-1.2c-3,0.4-3.4-2.2-0.7-4.1c17.3-12.2,45.6-8.6,48.9-4.6c3.3,4.1-0.9,32.5-17.1,46.1
	c-2.5,2.1-4.9,1-3.8-1.8C350.9,151.2,359,130.8,355.2,125.8"/>
<path class="st1" d="M320.6,34.8V22.9c0-1.8,1.4-3,3-3h52.9c1.7,0,3.1,1.2,3.1,3v10.1c0,1.7-1.4,3.9-4,7.4l-27.4,39.1
	c10.2-0.2,20.9,1.3,30.2,6.5c2.1,1.2,2.6,2.9,2.8,4.6v12.6c0,1.7-1.9,3.7-3.9,2.7c-16.3-8.5-37.9-9.5-55.9,0.1c-1.8,1-3.8-1-3.8-2.7
	v-12c0-1.9,0-5.2,1.9-8.1l31.8-45.5h-27.6C321.9,37.7,320.6,36.5,320.6,34.8 M127.6,108.5h-16.1c-1.5-0.1-2.8-1.3-2.9-2.7V23.1
	c0-1.7,1.4-3,3.1-3h15c1.6,0.1,2.8,1.3,2.9,2.8v10.8h0.3c3.9-10.4,11.3-15.3,21.2-15.3c10.1,0,16.4,4.9,20.9,15.3
	c3.9-10.4,12.7-15.3,22.2-15.3c6.7,0,14.1,2.8,18.6,9c5.1,6.9,4.1,17,4.1,25.9l0,52.1c0,1.7-1.4,3-3.1,3h-16.1
	c-1.6-0.1-2.9-1.4-2.9-3V61.7c0-3.5,0.3-12.2-0.5-15.5c-1.2-5.5-4.8-7.1-9.5-7.1c-3.9,0-8,2.6-9.6,6.8s-1.5,11.1-1.5,15.8v43.8
	c0,1.7-1.4,3-3.1,3h-16.1c-1.6-0.1-2.9-1.4-2.9-3l0-43.8c0-9.2,1.5-22.8-9.9-22.8c-11.6,0-11.1,13.2-11.1,22.8v43.8
	C130.7,107.1,129.3,108.5,127.6,108.5 M425.1,18.4c23.9,0,36.8,20.5,36.8,46.6c0,25.2-14.3,45.2-36.8,45.2
	c-23.5,0-36.2-20.5-36.2-46.1C388.8,38.4,401.8,18.4,425.1,18.4 M425.2,35.3c-11.9,0-12.6,16.2-12.6,26.2c0,10.1-0.2,31.6,12.5,31.6
	c12.5,0,13.1-17.4,13.1-28c0-7-0.3-15.3-2.4-21.9C433.9,37.5,430.3,35.3,425.2,35.3 M492.8,108.5h-16c-1.6-0.1-2.9-1.4-2.9-3l0-82.6
	c0.1-1.5,1.5-2.7,3.1-2.7h14.9c1.4,0.1,2.6,1,2.9,2.3v12.6h0.3c4.5-11.3,10.8-16.7,21.9-16.7c7.2,0,14.3,2.6,18.8,9.7
	c4.2,6.6,4.2,17.7,4.2,25.7v52c-0.2,1.4-1.5,2.6-3.1,2.6h-16.1c-1.5-0.1-2.7-1.2-2.9-2.6V61c0-9,1-22.2-10.1-22.2
	c-3.9,0-7.5,2.6-9.3,6.6c-2.3,5-2.6,10.1-2.6,15.6v44.5C496,107.1,494.5,108.5,492.8,108.5 M278.4,69c0,6.3,0.2,11.5-3,17.1
	c-2.6,4.5-6.6,7.3-11.1,7.3c-6.2,0-9.8-4.7-9.8-11.7c0-13.7,12.3-16.2,23.9-16.2L278.4,69z M294.6,108.3c-1.1,1-2.6,1-3.8,0.4
	c-5.3-4.4-6.3-6.5-9.2-10.7c-8.8,9-15.1,11.7-26.5,11.7c-13.6,0-24.1-8.4-24.1-25.1c0-13.1,7.1-22,17.2-26.3
	c8.7-3.8,20.9-4.5,30.3-5.6v-2.1c0-3.8,0.3-8.4-2-11.7c-1.9-3-5.7-4.2-9-4.2c-6.1,0-11.6,3.1-12.9,9.7c-0.3,1.4-1.3,2.9-2.8,2.9
	l-15.6-1.7c-1.3-0.3-2.8-1.4-2.4-3.4c3.6-18.9,20.7-24.6,36-24.6c7.8,0,18.1,2.1,24.2,8c7.8,7.3,7.1,17.1,7.1,27.7v25.1
	c0,7.5,3.1,10.8,6.1,14.9c1,1.4,1.2,3.2-0.1,4.3C303.7,100.4,297.9,105.4,294.6,108.3L294.6,108.3z M67.4,69c0,6.3,0.2,11.5-3,17.1
	c-2.6,4.5-6.6,7.3-11.1,7.3c-6.2,0-9.8-4.7-9.8-11.7c0-13.7,12.3-16.2,23.9-16.2V69z M83.7,108.3c-1.1,1-2.6,1-3.8,0.4
	c-5.3-4.4-6.3-6.5-9.2-10.7c-8.8,9-15.1,11.7-26.5,11.7c-13.5,0-24.1-8.4-24.1-25.1c0-13.1,7.1-22,17.2-26.3
	c8.7-3.8,20.9-4.5,30.3-5.6v-2.1c0-3.8,0.3-8.4-1.9-11.7c-2-3-5.7-4.2-9-4.2c-6.1,0-11.6,3.1-12.9,9.7c-0.3,1.4-1.3,2.9-2.8,2.9
	l-15.6-1.7c-1.3-0.3-2.8-1.4-2.4-3.4c3.6-18.9,20.7-24.6,36-24.6c7.8,0,18.1,2.1,24.2,8C90.8,33,90,42.7,90,53.3v25.1
	c0,7.5,3.1,10.8,6.1,14.9c1,1.4,1.3,3.2,0,4.3C92.7,100.4,86.9,105.4,83.7,108.3L83.7,108.3z"/>
</svg>
