<?xml version="1.0" encoding="utf-8"?>
<!-- Generator: Adobe Illustrator 23.1.1, SVG Export Plug-In . SVG Version: 6.00 Build 0)  -->
<svg version="1.1" id="layer" xmlns="http://www.w3.org/2000/svg" xmlns:xlink="http://www.w3.org/1999/xlink" x="0px" y="0px"
	 viewBox="0 0 652 121" style="enable-background:new 0 0 652 121;" xml:space="preserve">
<style type="text/css">
	.st0{fill:#7F9D91;}
	.st1{fill:#E39000;}
	.st2{fill:#FFFFFF;}
</style>
<polygon class="st0" points="426,102.3 411.5,52.6 412.8,71.9 412.8,102.3 401.2,102.3 401.2,21.9 412.4,21.9 426.6,71.9 
	425.7,50.6 425.7,21.9 437.3,21.9 437.3,102.3 "/>
<polygon class="st0" points="201.9,102.3 187.4,52.6 188.7,71.9 188.7,102.3 177.1,102.3 177.1,21.9 188.4,21.9 202.6,71.9 
	201.6,50.6 201.6,21.9 213.2,21.9 213.2,102.3 "/>
<polygon class="st0" points="553.7,102.3 553.7,21.9 565.9,21.9 565.9,91.8 583.6,91.8 583.6,102.3 "/>
<polygon class="st0" points="595.6,102.3 595.6,21.9 624,21.9 624,32.3 607.8,32.3 607.8,55.5 622.7,55.5 622.7,66 607.8,66 
	607.8,91.8 625.6,91.8 625.6,102.3 "/>
<polygon class="st0" points="229,102.3 229,21.9 257.4,21.9 257.4,32.3 241.2,32.3 241.2,55.5 256.1,55.5 256.1,66 241.2,66 
	241.2,91.8 259,91.8 259,102.3 "/>
<g>
	<path class="st0" d="M470,20.6c-16.1,0-18.2,15.7-18.2,42.8c0,27.1,2.2,42.8,18.2,42.8c16.1,0,18.2-15.7,18.2-42.8
		C488.2,36.3,486.1,20.6,470,20.6 M470,97.6c-5.7,0-5.7-6.2-5.7-34.2c0-28.1,0-34.2,5.7-34.2s5.7,6.2,5.7,34.2
		C475.7,91.5,475.7,97.6,470,97.6"/>
	<path class="st0" d="M52.8,59.6c6.9-2.9,9-6.4,9-17.5c0-15.7-7.6-20.4-17.4-20.4H25.6v80.6h23c6.8,0,15-5.2,15.2-21.1
		C63.9,65.4,58.1,62.1,52.8,59.6 M37.8,31H43c5,0,6.8,5.1,6.8,11.4c0,6.4-0.8,13.1-7.4,13.1h-4.5L37.8,31L37.8,31z M42.3,93h-4.5
		V64.9H43c5,0,7.1,3.9,7.2,14.1C50.4,87.9,48.9,93,42.3,93"/>
	<path class="st0" d="M97.8,21.7H86l-14.3,80.6H83l1.9-13.1h12.4l1.6,13.1h12.6L97.8,21.7z M86,81.1l5.3-41.2l5.1,41.2H86z"/>
	<path class="st0" d="M150.5,60.3c7.7-2.3,11.1-7,11.1-18.2c0-15.7-7.6-20.4-17.4-20.4h-20v80.6h12.3V64.9c5.3,0,10.5,4.1,10.6,12.6
		l0.5,24.8h12.3l-0.6-27.1C159.4,66,153.1,61.4,150.5,60.3 M142.1,55.6h-5.6V31h6.3c5,0,6.8,5.1,6.8,11.4
		C149.5,48.9,148.7,55.6,142.1,55.6"/>
	<path class="st0" d="M283.2,75.7h-11.6v13.1c0,9.7,7.6,14.6,18.4,14.6s17.1-9.8,17.1-21.6c0-11.8-7.6-18.2-10.3-21.6L286,46.3
		c-3.4-4.7-2.7-7.7-2.7-11.3c0-3.6,0.8-7.7,5.6-7.7c4.4,0,5,2.3,5,7.3v7.5h11.8v-7c0-8.7-3.7-15.5-17.6-15.5s-16.6,9.5-16.6,16.8
		c0,7.4,1.8,12.1,9.3,21.6l11.9,14.9c2.7,3,3.1,8.2,2.9,12.4c-0.2,4.2-1.6,9.2-6.1,9.2c-3.9,0-6.1-2.5-6.3-6.5L283.2,75.7
		L283.2,75.7z"/>
	<path class="st1" d="M382.9,59.3c-7.1,0-12.6,7.5-15.5,15.7c-1,2.8-2.7,6.6-5.1,10.4c-0.4-0.6-0.9-1.3-1.3-1.9
		c-4.7-6.5-10.4-15.8-14-25.8c3.7-2.3,7.9-4.7,12.4-7.2c17.6-9.8,17.1-24.5,11-31.4c-7.7-8.5-30.5,0.2-33.4,13.9
		c-1.6,8.8-0.9,17.1,1.2,24.8c-14.1,7.5-19.5,20.6-19.5,27.7c0,7.2,4.5,19.5,21,19c8.3-0.2,14.6-4.5,19.4-10
		c12,14.2,23.3,8.6,28.7,3.1l-1.6-2.1c-10.8,9.1-16.4,1-22.2-7.6c4.5-7.3,6.9-14.8,8-17.1c2.3-4.9,5.8-6.9,8.1-7.2
		c2.3-0.3,5.8,0,4.8,3.9s2.9,5.2,4.2,4.9c1.3-0.3,3.5-1.3,3.5-4.9C392.6,63.9,390,59.3,382.9,59.3 M359.4,20.4
		c7.4,0.3,11.3,5.2,9.3,13.7c-1.7,7.3-10.5,13.2-23,19.8c-1.1-3.8-1.9-7.7-2.2-11.6C342.6,26.9,352,20.1,359.4,20.4 M341.7,99.5
		c-13.5-0.7-16.8-10.5-14.8-20.6c1.1-5.8,5.7-11,12.9-16.3c4.1,11.3,10.9,21.2,17.4,29.5C353,96.5,347.8,99.8,341.7,99.5"/>
	<path class="st2" d="M364.6,95.3c-11.3-9.6-32.6-41.5-23.4-63.9h0.8c-2.4,9.1-1.1,35.6,23.2,63.1L364.6,95.3z"/>
	<path class="st0" d="M528.6,59.6c6.9-2.9,9-6.4,9-17.5c0-15.7-7.6-20.4-17.4-20.4h-18.9v80.6h23c6.8,0,15-5.2,15.2-21.1
		C539.7,65.3,533.9,62,528.6,59.6 M513.6,31h5.2c5,0,6.8,5.1,6.8,11.4c0,6.4-0.8,13.1-7.4,13.1h-4.5L513.6,31L513.6,31z M518.1,92.9
		h-4.5V64.8h5.2c5,0,7.1,3.9,7.2,14.1C526.2,87.8,524.8,92.9,518.1,92.9"/>
</g>
</svg>
