<svg xmlns="http://www.w3.org/2000/svg" id="Layer_1" data-name="Layer 1" viewBox="0 0 165 46"><defs><style>.cls-1{fill:#573ba3;}.cls-2{fill:#2c0f42;}</style></defs><path class="cls-1" d="M31.25,8.35c.82.14,1.66.23,2.46.43a7.11,7.11,0,0,1,5.34,6.44,6.65,6.65,0,0,1-3,6l-.68.48.69.53a6.74,6.74,0,0,1,3.05,5.14A6.66,6.66,0,0,1,36.68,33a7.71,7.71,0,0,1-5.27,1.92H6.12a4.17,4.17,0,0,1-.84-.17V33.32a2.87,2.87,0,0,1,.62-.17c.58,0,1.17,0,1.75,0,.93,0,1.22-.28,1.22-1.23,0-2.66,0-5.32,0-8a2.75,2.75,0,0,0,0-.41.93.93,0,0,0-1.07-1c-.63,0-1.27,0-1.9,0-.21,0-.4-.18-.61-.27V21a2.15,2.15,0,0,1,.61-.27c.63,0,1.27,0,1.9,0s1.07-.33,1.07-1.07q0-4.2,0-8.42c0-.73-.34-1.05-1.08-1.06s-1.26,0-1.89,0a2.37,2.37,0,0,1-.61-.28V8.35ZM21.38,33.14h8.56a5.42,5.42,0,0,0,.57,0c.8-.06,1.6-.1,2.39-.2a5.4,5.4,0,0,0,4.44-5.4,5.27,5.27,0,0,0-3.15-4.35,8.2,8.2,0,0,0-3.7-.63H11.71c-.9,0-1.21.31-1.21,1.24v8.13c0,.94.29,1.22,1.23,1.22Zm.13-23h-9.8c-.9,0-1.21.31-1.21,1.2v8.08c0,1,.31,1.28,1.29,1.28q9.15,0,18.32,0a19.77,19.77,0,0,0,2.55-.2,5.29,5.29,0,0,0,4.49-3.62,3.72,3.72,0,0,0,.24-1.74A5.41,5.41,0,0,0,34,10.79a7.3,7.3,0,0,0-3-.6Z"></path><path class="cls-2" d="M59,21.17c.31.08.52.12.72.19a12.66,12.66,0,0,1,2.13.81,3.78,3.78,0,0,1,1.75,3.93A4.07,4.07,0,0,1,61,29.64a7.5,7.5,0,0,1-3.19.65c-2.16,0-4.31-.07-6.46-.13a1.22,1.22,0,0,1-.68-.18.73.73,0,0,1-.32-.52c0-.17.21-.34.33-.51l0,0c1.07-.17,1.19-.95,1.18-1.82,0-3.82,0-7.63,0-11.45,0-.75-.17-1.37-1.06-1.55-.2,0-.51-.4-.47-.54a1.11,1.11,0,0,1,.53-.64,1.9,1.9,0,0,1,.8-.12c2.12,0,4.24-.07,6.36,0a5.3,5.3,0,0,1,2.67.8,4,4,0,0,1-.09,6.84C60.14,20.68,59.6,20.88,59,21.17Zm-3.45.66,0,.12H55c-.86,0-.92,0-.91.88,0,1.64.09,3.27.12,4.9a.84.84,0,0,0,.66.9,6.27,6.27,0,0,0,4.21,0,2.74,2.74,0,0,0,1.81-1.94c.44-1.87-.16-3.59-2.16-4.19A31.62,31.62,0,0,0,55.51,21.83ZM56,14l0,.13H54.82a.55.55,0,0,0-.61.59c0,1.25-.08,2.49-.12,3.73,0,.55,0,1.09,0,1.63,0,.28.11.51.45.52a9.38,9.38,0,0,0,3.79-.46,2.7,2.7,0,0,0,1.81-2.84,2.73,2.73,0,0,0-1.91-2.89A18.13,18.13,0,0,0,56,14Z"></path><path class="cls-2" d="M147.14,19.71a3.3,3.3,0,0,0,.52-.35A4.84,4.84,0,0,1,155.77,22a7.32,7.32,0,0,1-1.35,6.47A5.48,5.48,0,0,1,147.71,30l-.49-.22c-.05,0-.09.06-.09.08,0,1,0,2.08.07,3.11a.73.73,0,0,0,.65.74,1.5,1.5,0,0,1,.44.11c.15.09.35.24.36.37a.8.8,0,0,1-.25.51.58.58,0,0,1-.41.18c-1.15,0-2.31,0-3.46,0a.47.47,0,0,1-.33-.13c-.14-.15-.34-.34-.33-.51a.59.59,0,0,1,.37-.45,1.1,1.1,0,0,0,.92-1.26c0-3.9,0-7.81-.07-11.71,0-.82-.11-.84-.91-1-.19,0-.46-.19-.5-.34a.76.76,0,0,1,.2-.61,4.06,4.06,0,0,1,2.61-.92c.33,0,.53.19.56.54S147.1,19.22,147.14,19.71Zm-.08,5h.06c0,.82,0,1.64,0,2.45a1.67,1.67,0,0,0,.35,1,3.64,3.64,0,0,0,3.56,1.18,3.15,3.15,0,0,0,2.55-2.37,7.37,7.37,0,0,0-.21-5.05,3.45,3.45,0,0,0-3.87-2.26,2.43,2.43,0,0,0-2.27,2A28.06,28.06,0,0,0,147.06,24.67Z"></path><path class="cls-2" d="M119.41,20.19a4.22,4.22,0,0,0,.42-.47A3.83,3.83,0,0,1,124.22,18c1.79.38,2.56,1.7,2.9,3.33a11.85,11.85,0,0,1,.18,2c0,1.56.06,3.13.08,4.7a1,1,0,0,0,.76,1.06c.21.06.48.37.46.55a.79.79,0,0,1-.5.54,6.85,6.85,0,0,1-3.54,0,.84.84,0,0,1-.5-.58c0-.15.29-.43.51-.51a.92.92,0,0,0,.74-1c0-2,.08-4.09-.06-6.13s-1.54-2.79-3.45-2.18a3.27,3.27,0,0,0-2.41,3.38c0,1.35,0,2.7,0,4,0,.33.06.65.06,1a.85.85,0,0,0,.67.85c.3.09.62.18.61.59a.62.62,0,0,1-.67.58c-1.1,0-2.21.05-3.31,0-.34,0-.74-.2-.68-.61,0-.22.35-.46.6-.56a1,1,0,0,0,.68-1c0-3.64,0-7.29,0-10.94,0-.68-.08-1.36-.13-2a.61.61,0,0,0-.64-.64c-.32,0-.69,0-.78-.44s.25-.68.58-.8a19.94,19.94,0,0,1,2.25-.66c.46-.11.71.16.72.69,0,.73,0,1.46,0,2.19,0,1.38,0,2.77,0,4.15C119.37,19.68,119.39,19.86,119.41,20.19Z"></path><path class="cls-2" d="M96.84,22.91a1,1,0,0,0,.18,0,11.45,11.45,0,0,0,3-3c.17-.23.08-.45-.2-.57a3.12,3.12,0,0,1-.42-.18.43.43,0,0,1,0-.8,1.07,1.07,0,0,1,.48-.17c1.15,0,2.31,0,3.47,0a1,1,0,0,1,.52.2.41.41,0,0,1,0,.71,1,1,0,0,1-.32.15,8.66,8.66,0,0,0-4.43,3.47.68.68,0,0,0,0,.62,32,32,0,0,0,4.35,5.28,4.84,4.84,0,0,0,1.2.52,4.49,4.49,0,0,1,.57.4c-.15.21-.25.5-.45.59a3,3,0,0,1-3.74-.91l-3.54-4.63a1.44,1.44,0,0,0-.54-.4A16.31,16.31,0,0,0,97,28.55c0,.19.42.3.62.47s.51.35.55.57c.07.38-.31.59-.63.6-1.1,0-2.21,0-3.31,0-.31,0-.7-.2-.62-.6a1,1,0,0,1,.55-.55,1,1,0,0,0,.73-.92c0-.94.09-1.88.08-2.81q0-4.35-.06-8.7c0-.54-.08-1.08-.13-1.63a.6.6,0,0,0-.64-.59c-.32,0-.69,0-.76-.45s.23-.68.57-.79a19.94,19.94,0,0,1,2.25-.66c.39-.1.66.13.7.55s0,.61,0,.92c0,2.64-.09,5.28-.12,7.92A9.06,9.06,0,0,0,96.84,22.91Z"></path><path class="cls-2" d="M65.69,24.48a6.28,6.28,0,0,1,4.84-6.42,5.68,5.68,0,0,1,7,4.88,6.57,6.57,0,0,1-2.18,6.18,5.55,5.55,0,0,1-6.09.95,5.65,5.65,0,0,1-3.56-5C65.7,24.85,65.7,24.59,65.69,24.48Zm9.85.19a6.51,6.51,0,0,0-1.82-4.53,3.25,3.25,0,0,0-5.26.87,5.59,5.59,0,0,0-.6,2.51A6.71,6.71,0,0,0,69.17,28a3.28,3.28,0,0,0,5.8-.85A16.6,16.6,0,0,0,75.54,24.67Z"></path><path class="cls-2" d="M142.11,24A6.38,6.38,0,0,1,138,30.2a5.87,5.87,0,0,1-7.84-5.4,6.39,6.39,0,0,1,2.28-5.49,5.85,5.85,0,0,1,6.44-.82A5.73,5.73,0,0,1,142.11,24Zm-9.77-.15a6.89,6.89,0,0,0,1.2,4,3.27,3.27,0,0,0,3.27,1.49,3.23,3.23,0,0,0,2.74-2.37,6.93,6.93,0,0,0-.26-5.27,5.66,5.66,0,0,0-1.36-1.75,3.18,3.18,0,0,0-4.88.92A5.86,5.86,0,0,0,132.34,23.85Z"></path><path class="cls-2" d="M91.75,24a6.36,6.36,0,0,1-3.37,5.86,5.87,5.87,0,0,1-8.57-5,6.35,6.35,0,0,1,2.81-5.95,5.72,5.72,0,0,1,6.17-.31C90.89,19.75,91.7,21.67,91.75,24Zm-2.07.69-.13,0a6.35,6.35,0,0,0-1.42-4.26,3.29,3.29,0,0,0-5.56.61,7,7,0,0,0,.86,7.13,3.29,3.29,0,0,0,5.62-.9A19.38,19.38,0,0,0,89.68,24.71Z"></path><path class="cls-2" d="M110.59,30.62c-.56-.1-1-.16-1.49-.27a1.84,1.84,0,0,0-1.4,0,.55.55,0,0,1-.51-.14,3.72,3.72,0,0,1-.75-2.64A.93.93,0,0,1,107,27c.17-.06.5.14.65.32a6,6,0,0,1,.56.91,2.56,2.56,0,0,0,3.25.94A1.88,1.88,0,0,0,112,26a11.12,11.12,0,0,0-1.73-1,16.77,16.77,0,0,1-2.32-1.28,3.18,3.18,0,0,1,.46-5.32,4.58,4.58,0,0,1,3.23-.4,1.79,1.79,0,0,0,.83-.05.71.71,0,0,1,.82.22,3.21,3.21,0,0,1,.77,2.56.84.84,0,0,1-.46.58c-.32.14-.58-.07-.74-.37a12.9,12.9,0,0,0-.65-1.22,2.06,2.06,0,0,0-2.4-.6,1.77,1.77,0,0,0-1,1.92,1.85,1.85,0,0,0,1.11,1.38c.87.45,1.76.83,2.64,1.26a3.55,3.55,0,0,1-.27,6.55A15.64,15.64,0,0,1,110.59,30.62Z"></path></svg>